<svg xmlns="http://www.w3.org/2000/svg" xmlns:xlink="http://www.w3.org/1999/xlink" width="1200" zoomAndPan="magnify" viewBox="0 0 900 299.999988" height="400" preserveAspectRatio="xMidYMid meet" version="1.2"><defs><clipPath id="902890ee67"><path d="M 63.089844 65.058594 L 177 65.058594 L 177 235 L 63.089844 235 Z M 63.089844 65.058594 "/></clipPath><clipPath id="46613603a9"><path d="M 123 65.058594 L 238 65.058594 L 238 112 L 123 112 Z M 123 65.058594 "/></clipPath></defs><g id="3aad4f3a65"><g style="fill:#ffffff;fill-opacity:1;"><g transform="translate(260.91237, 183.374985)"><path style="stroke:none" d="M 96.765625 0 L 8.4375 0 L 8.4375 -75.671875 L 40.1875 -75.671875 L 40.1875 -18.71875 L 96.765625 -18.71875 Z M 96.765625 0 "/></g></g><g style="fill:#ffffff;fill-opacity:1;"><g transform="translate(336.058849, 183.374985)"><path style="stroke:none" d="M 73.828125 0 L 42.078125 0 L 42.078125 -35.859375 L 0.796875 -75.671875 L 35.96875 -75.671875 L 57.953125 -53.046875 L 79.890625 -75.671875 L 115.0625 -75.671875 L 73.828125 -35.859375 Z M 73.828125 0 "/></g><g transform="translate(451.916262, 183.374985)"><path style="stroke:none" d="M 120.703125 0 L 82.953125 0 L 40.1875 -51.203125 L 40.1875 0 L 8.4375 0 L 8.4375 -75.671875 L 46.203125 -75.671875 L 88.96875 -24.734375 L 88.96875 -75.671875 L 120.703125 -75.671875 Z M 120.703125 0 "/></g><g transform="translate(581.062735, 183.374985)"><path style="stroke:none" d="M 132.6875 0 L 91.4375 0 L 58.953125 -25.3125 L 40.1875 -12.5 L 40.1875 0 L 8.4375 0 L 8.4375 -75.671875 L 40.1875 -75.671875 L 40.1875 -40.65625 L 91.125 -75.671875 L 132.6875 -75.671875 L 78.46875 -38.65625 Z M 132.6875 0 "/></g><g transform="translate(714.533427, 183.374985)"><path style="stroke:none" d="M 111.75 0 L 81.734375 0 C 80.367188 -1.894531 79.40625 -4.320312 78.84375 -7.28125 C 78.34375 -9.5625 77.597656 -11.800781 76.609375 -14 C 75.628906 -16.195312 73.9375 -18.023438 71.53125 -19.484375 C 69.125 -20.941406 65.546875 -21.722656 60.796875 -21.828125 L 40.1875 -21.828125 L 40.1875 0 L 8.4375 0 L 8.4375 -75.671875 L 60.0625 -75.671875 C 72.40625 -75.671875 82.363281 -74.75 89.9375 -72.90625 C 97.507812 -71.0625 103.035156 -68.160156 106.515625 -64.203125 C 110.003906 -60.242188 111.75 -55.085938 111.75 -48.734375 C 111.75 -43.421875 110.539062 -38.953125 108.125 -35.328125 C 105.71875 -31.710938 101.914062 -28.847656 96.71875 -26.734375 C 101.738281 -24.660156 104.992188 -22.171875 106.484375 -19.265625 C 107.984375 -16.367188 108.910156 -13.179688 109.265625 -9.703125 C 109.617188 -6.609375 110.445312 -3.375 111.75 0 Z M 40.1875 -40.5 L 58.328125 -40.546875 C 63.390625 -40.546875 67.378906 -40.773438 70.296875 -41.234375 C 73.210938 -41.691406 75.363281 -42.316406 76.75 -43.109375 C 78.144531 -43.898438 79.035156 -44.78125 79.421875 -45.75 C 79.804688 -46.71875 80 -47.710938 80 -48.734375 C 80 -49.742188 79.804688 -50.738281 79.421875 -51.71875 C 79.035156 -52.707031 78.144531 -53.597656 76.75 -54.390625 C 75.363281 -55.179688 73.210938 -55.804688 70.296875 -56.265625 C 67.378906 -56.722656 63.390625 -56.953125 58.328125 -56.953125 L 40.1875 -56.953125 Z M 40.1875 -40.5 "/></g></g><g clip-rule="nonzero" clip-path="url(#902890ee67)"><path style=" stroke:none;fill-rule:nonzero;fill:#ffffff;fill-opacity:1;" d="M 87.320312 188.382812 C 103.417969 188.382812 119.511719 188.21875 135.609375 188.417969 C 158.992188 188.714844 175.792969 205.136719 176.867188 228.097656 C 177.097656 233.050781 175.773438 234.703125 170.523438 234.625 C 148.8125 234.316406 127.09375 234.527344 105.375 234.492188 C 80.363281 234.457031 63.183594 217.089844 63.238281 192.082031 C 63.304688 163.363281 63.082031 134.640625 63.359375 105.921875 C 63.578125 83.257812 80.988281 65.917969 103.144531 65.242188 C 108.203125 65.089844 109.726562 66.597656 109.675781 71.707031 C 109.425781 95.347656 109.125 119.003906 109.707031 142.632812 C 110.183594 161.980469 104.878906 177.820312 87.320312 188.382812 Z M 87.320312 188.382812 "/></g><path style=" stroke:none;fill-rule:nonzero;fill:#ffffff;fill-opacity:1;" d="M 212.179688 167.78125 C 224.519531 172.597656 231.464844 181.503906 237.164062 191.894531 C 244.820312 205.859375 252.9375 219.570312 260.839844 233.398438 C 260.902344 233.503906 260.757812 233.71875 260.789062 233.617188 C 248.03125 233.617188 235.191406 234.875 222.71875 233.269531 C 209.847656 231.617188 201.464844 222.265625 194.765625 211.324219 C 189.03125 201.972656 182.910156 192.726562 175.898438 184.324219 C 168.230469 175.125 157.28125 171.550781 145.503906 170.882812 C 139.738281 170.554688 133.9375 170.539062 128.167969 170.757812 C 124.621094 170.890625 123.71875 169.4375 123.589844 166.183594 C 122.746094 144.960938 139.460938 125.535156 160.746094 124.839844 C 184.898438 124.058594 209.085938 124.636719 233.261719 124.496094 C 236.824219 124.476562 237.214844 126.402344 237.195312 129.15625 C 237.078125 144.324219 230.859375 156.179688 218.074219 164.460938 C 216.46875 165.492188 214.742188 166.34375 212.179688 167.78125 Z M 212.179688 167.78125 "/><g clip-rule="nonzero" clip-path="url(#46613603a9)"><path style=" stroke:none;fill-rule:nonzero;fill:#ffffff;fill-opacity:1;" d="M 123.765625 65.640625 C 125.773438 65.484375 126.972656 65.316406 128.171875 65.316406 C 150.757812 65.308594 173.34375 65.183594 195.929688 65.355469 C 219.402344 65.535156 237.089844 83.207031 237.222656 106.085938 C 237.246094 109.886719 236.550781 111.664062 232.054688 111.613281 C 209.648438 111.367188 187.234375 111.652344 164.828125 111.457031 C 142.109375 111.257812 125.976562 96.378906 123.800781 73.941406 C 123.535156 71.246094 123.765625 68.496094 123.765625 65.640625 Z M 123.765625 65.640625 "/></g></g></svg>