<svg xmlns="http://www.w3.org/2000/svg" xmlns:xlink="http://www.w3.org/1999/xlink" width="500" zoomAndPan="magnify" viewBox="0 0 375 374.999991" height="500" preserveAspectRatio="xMidYMid meet" version="1.2"><defs><clipPath id="968a3ac959"><path d="M 41 61.546875 L 210 61.546875 L 210 313 L 41 313 Z M 41 61.546875 "/></clipPath><clipPath id="459d73e9ee"><path d="M 130 149 L 334.078125 149 L 334.078125 313 L 130 313 Z M 130 149 "/></clipPath><clipPath id="b3e525d1cd"><path d="M 130 61.546875 L 299 61.546875 L 299 131 L 130 131 Z M 130 61.546875 "/></clipPath></defs><g id="4e28b49e6e"><g clip-rule="nonzero" clip-path="url(#968a3ac959)"><path style=" stroke:none;fill-rule:nonzero;fill:#ffffff;fill-opacity:1;" d="M 76.75 244.367188 C 100.613281 244.367188 124.476562 244.125 148.339844 244.425781 C 183.007812 244.867188 207.90625 269.207031 209.5 303.246094 C 209.84375 310.589844 207.882812 313.039062 200.101562 312.921875 C 167.914062 312.464844 135.714844 312.777344 103.519531 312.726562 C 66.4375 312.675781 40.96875 286.925781 41.054688 249.855469 C 41.148438 207.28125 40.824219 164.699219 41.230469 122.121094 C 41.554688 88.527344 67.363281 62.824219 100.210938 61.820312 C 107.707031 61.59375 109.96875 63.828125 109.894531 71.402344 C 109.523438 106.449219 109.078125 141.515625 109.9375 176.546875 C 110.644531 205.226562 102.78125 228.714844 76.75 244.367188 Z M 76.75 244.367188 "/></g><g clip-rule="nonzero" clip-path="url(#459d73e9ee)"><path style=" stroke:none;fill-rule:nonzero;fill:#ffffff;fill-opacity:1;" d="M 261.855469 213.832031 C 280.144531 220.972656 290.441406 234.171875 298.890625 249.574219 C 310.242188 270.277344 322.277344 290.601562 333.992188 311.105469 C 334.078125 311.257812 333.871094 311.578125 333.914062 311.429688 C 315.003906 311.429688 295.964844 313.292969 277.476562 310.914062 C 258.394531 308.460938 245.972656 294.597656 236.035156 278.378906 C 227.539062 264.515625 218.460938 250.8125 208.066406 238.351562 C 196.695312 224.71875 180.46875 219.414062 163.003906 218.429688 C 154.457031 217.945312 145.859375 217.917969 137.308594 218.242188 C 132.050781 218.441406 130.710938 216.285156 130.519531 211.460938 C 129.269531 180 154.050781 151.199219 185.605469 150.171875 C 221.40625 149.011719 257.265625 149.867188 293.105469 149.664062 C 298.386719 149.632812 298.96875 152.488281 298.9375 156.570312 C 298.761719 179.058594 289.546875 196.628906 270.59375 208.90625 C 268.207031 210.433594 265.652344 211.695312 261.855469 213.832031 Z M 261.855469 213.832031 "/></g><g clip-rule="nonzero" clip-path="url(#b3e525d1cd)"><path style=" stroke:none;fill-rule:nonzero;fill:#ffffff;fill-opacity:1;" d="M 130.78125 62.40625 C 133.757812 62.179688 135.535156 61.929688 137.3125 61.929688 C 170.792969 61.917969 204.28125 61.734375 237.761719 61.988281 C 272.5625 62.253906 298.78125 88.449219 298.980469 122.371094 C 299.011719 128.003906 297.980469 130.636719 291.320312 130.5625 C 258.101562 130.199219 224.875 130.617188 191.65625 130.332031 C 157.976562 130.039062 134.054688 107.980469 130.832031 74.714844 C 130.441406 70.71875 130.78125 66.640625 130.78125 62.40625 Z M 130.78125 62.40625 "/></g></g></svg>